<svg xmlns="http://www.w3.org/2000/svg" viewBox="0 0 56 56"><path fill="#e9e9e0" d="M36.985 0H7.963C7.155 0 6.5.655 6.5 1.926V55c0 .345.655 1 1.463 1h40.074c.808 0 1.463-.655 1.463-1V12.978c0-.696-.093-.92-.257-1.085L37.607.257C37.442.093 37.218 0 36.985 0z"/><path fill="#d9d7ca" d="M37.5.151V12h11.849z"/><path fill="#f36fa0" d="M48.037 56H7.963c-.808 0-1.463-.655-1.463-1.463V39h43v15.537c0 .808-.655 1.463-1.463 1.463z"/><path d="M21.58 51.975c-.374.364-.798.638-1.271.82-.474.183-.984.273-1.531.273-.602 0-1.155-.109-1.661-.328s-.948-.542-1.326-.971c-.378-.429-.675-.966-.889-1.613-.214-.647-.321-1.395-.321-2.242s.107-1.593.321-2.235c.214-.643.51-1.178.889-1.606.378-.429.822-.754 1.333-.978.51-.224 1.062-.335 1.654-.335.547 0 1.057.091 1.531.273.474.183.897.456 1.271.82l-1.135 1.012c-.228-.265-.481-.456-.759-.574-.278-.118-.567-.178-.868-.178-.337 0-.659.063-.964.191-.306.128-.579.344-.82.649-.242.306-.431.699-.567 1.183s-.21 1.075-.219 1.777c.009.684.08 1.267.212 1.75.132.483.314.877.547 1.183s.497.528.793.67c.296.142.608.212.937.212s.636-.06.923-.178.549-.31.786-.574l1.134.999zm8.053-1.737c0 .364-.075.718-.226 1.06s-.362.643-.636.902-.611.467-1.012.622c-.401.155-.857.232-1.367.232-.219 0-.444-.012-.677-.034s-.467-.062-.704-.116c-.237-.055-.463-.13-.677-.226-.214-.096-.399-.212-.554-.349l.287-1.176c.127.073.289.144.485.212s.398.132.608.191c.209.06.419.107.629.144.209.036.405.055.588.055.556 0 .982-.13 1.278-.39.296-.26.444-.645.444-1.155 0-.31-.105-.574-.314-.793-.21-.219-.472-.417-.786-.595s-.654-.355-1.019-.533c-.365-.178-.707-.388-1.025-.629-.319-.241-.583-.526-.793-.854-.21-.328-.314-.738-.314-1.23 0-.446.082-.843.246-1.189s.385-.641.663-.882.602-.426.971-.554.759-.191 1.169-.191c.419 0 .843.039 1.271.116.428.077.774.203 1.039.376-.055.118-.119.248-.191.39-.073.142-.142.273-.205.396-.064.123-.119.226-.164.308-.046.082-.073.128-.082.137-.055-.027-.116-.063-.185-.109s-.167-.091-.294-.137c-.128-.046-.296-.077-.506-.096-.21-.019-.479-.014-.807.014-.183.019-.355.07-.52.157s-.31.193-.438.321-.228.271-.301.431c-.073.159-.109.313-.109.458 0 .364.104.658.314.882.209.224.469.419.779.588.31.169.647.333 1.012.492.364.159.704.354 1.019.581s.576.513.786.854c.213.342.318.781.318 1.319zm4.402 2.817l-3.131-10.131h1.873l2.338 8.695 2.475-8.695h1.859l-3.281 10.131h-2.133z" fill="#fff"/><path fill="#c8bdb8" d="M23.5 16v-4h-12v22h33V16h-21zm-10-2h8v2h-8v-2zm0 4h8v2h-8v-2zm0 4h8v2h-8v-2zm0 4h8v2h-8v-2zm8 6h-8v-2h8v2zm21 0h-19v-2h19v2zm0-4h-19v-2h19v2zm0-4h-19v-2h19v2zm-19-4v-2h19v2h-19z"/></svg>