<svg xmlns="http://www.w3.org/2000/svg" viewBox="0 0 56 56"><path fill="#e9e9e0" d="M36.985 0H7.963C7.155 0 6.5.655 6.5 1.926V55c0 .345.655 1 1.463 1h40.074c.808 0 1.463-.655 1.463-1V12.978c0-.696-.093-.92-.257-1.085L37.607.257C37.442.093 37.218 0 36.985 0z"/><path fill="#d9d7ca" d="M37.5.151V12h11.849z"/><path fill="#f6712e" d="M48.037 56H7.963c-.808 0-1.463-.655-1.463-1.463V39h43v15.537c0 .808-.655 1.463-1.463 1.463z"/><path d="M17.581 53H15.94V42.924h2.898c.428 0 .852.068 1.271.205.419.137.795.342 1.128.615.333.273.602.604.807.991s.308.822.308 1.306c0 .511-.087.973-.26 1.388-.173.415-.415.764-.725 1.046-.31.282-.684.501-1.121.656s-.921.232-1.449.232H17.58V53zm0-8.832v3.992h1.504c.2 0 .398-.034.595-.103.196-.068.376-.18.54-.335s.296-.371.396-.649c.1-.278.15-.622.15-1.032 0-.164-.023-.354-.068-.567-.046-.214-.139-.419-.28-.615-.142-.196-.34-.36-.595-.492-.255-.132-.593-.198-1.012-.198h-1.23zM25.853 53h-1.641V42.924h2.898c.428 0 .852.068 1.271.205.419.137.795.342 1.128.615.333.273.602.604.807.991s.308.822.308 1.306c0 .511-.087.973-.26 1.388-.173.415-.415.764-.725 1.046-.31.282-.684.501-1.121.656s-.921.232-1.449.232h-1.217V53zm0-8.832v3.992h1.504c.2 0 .398-.034.595-.103.196-.068.376-.18.54-.335s.296-.371.396-.649c.1-.278.15-.622.15-1.032 0-.164-.023-.354-.068-.567-.046-.214-.139-.419-.28-.615-.142-.196-.34-.36-.595-.492-.255-.132-.593-.198-1.012-.198h-1.23zm13.753-1.244v1.121h-3.008V53h-1.654v-8.955h-3.008v-1.121h7.67z" fill="#fff"/><path fill="#c8bdb8" d="M39.5 30h-24V14h24v16zm-22-2h20V16h-20v12z"/><path fill="#c8bdb8" d="M20.499 35c-.175 0-.353-.046-.514-.143-.474-.284-.627-.898-.343-1.372l3-5c.284-.474.898-.627 1.372-.343.474.284.627.898.343 1.372l-3 5c-.187.313-.518.486-.858.486zm14.002 0c-.34 0-.671-.173-.858-.485l-3-5c-.284-.474-.131-1.088.343-1.372.474-.283 1.088-.131 1.372.343l3 5c.284.474.131 1.088-.343 1.372-.161.096-.339.142-.514.142zM27.5 16c-.552 0-1-.447-1-1v-3c0-.553.448-1 1-1s1 .447 1 1v3c0 .553-.448 1-1 1z"/><path fill="#d3ccc9" d="M17.5 16h20v12h-20z"/></svg>