<svg xmlns="http://www.w3.org/2000/svg" viewBox="0 0 56 56"><path fill="#e9e9e0" d="M36.985 0H7.963C7.155 0 6.5.655 6.5 1.926V55c0 .345.655 1 1.463 1h40.074c.808 0 1.463-.655 1.463-1V12.978c0-.696-.093-.92-.257-1.085L37.607.257C37.442.093 37.218 0 36.985 0z"/><path fill="#d9d7ca" d="M37.5.151V12h11.849z"/><path fill="#ce3c3b" d="M48.037 56H7.963c-.808 0-1.463-.655-1.463-1.463V39h43v15.537c0 .808-.655 1.463-1.463 1.463z"/><g fill="#c8bdb8"><path d="M28.5 24v-2h2v-2h-2v-2h2v-2h-2v-2h2v-2h-2v-2h2V8h-2V6h-2v2h-2v2h2v2h-2v2h2v2h-2v2h2v2h-2v2h2v2h-4v5c0 2.757 2.243 5 5 5s5-2.243 5-5v-5h-4zm2 5c0 1.654-1.346 3-3 3s-3-1.346-3-3v-3h6v3z"/><path d="M26.5 30h2c.552 0 1-.447 1-1s-.448-1-1-1h-2c-.552 0-1 .447-1 1s.448 1 1 1z"/></g><g fill="#fff" font-family="Allerta" font-size="13.81913" font-weight="400" style="-inkscape-font-specification:Allerta"><path d="M20.11792 52.974575l-1.866454-3.621346q-.040288 0-.107422.013558h-1.42334v3.607783h-1.611328v-9.996h2.84668q.631103 0 1.248778.203447.617677.203446 1.101075.61034.496826.406892.792237.990104.308837.56965.308837 1.288495 0 1.085047-.496826 1.84458t-1.342773 1.125736l2.255859 3.933298h-1.705322zm-3.397216-4.801336h1.463623q.29541 0 .59082-.094945.29541-.108505.53711-.339077.2417-.230573.389404-.637466.147705-.420455.147705-1.030794 0-.244137-.067143-.556087-.067142-.325515-.281982-.61034-.201416-.298388-.577393-.48827-.375977-.203448-.993652-.203448H16.7207v3.960423zM23.609132 52.974575l3.464356-9.982437h1.5979l3.4375 9.982437h-1.66504l-.71167-2.075154h-3.719482l-.725097 2.075154h-1.678467zm2.77954-3.173764h2.954103l-1.463624-4.313064-1.490478 4.313064zM39.185303 52.974575l-1.866455-3.621346q-.040287 0-.107422.013558h-1.42334v3.607783h-1.611328v-9.996h2.84668q.631103 0 1.24878.203447.617675.203446 1.101074.61034.496826.406892.792236.990104.308838.56965.308838 1.288495 0 1.085047-.496826 1.84458t-1.342774 1.125736l2.25586 3.933298h-1.705323zm-3.397217-4.801336h1.463624q.29541 0 .59082-.094945.29541-.108505.537109-.339077.2417-.230573.389405-.637466.147704-.420455.147704-1.030794 0-.244137-.067142-.556087-.067143-.325515-.281982-.61034-.201417-.298388-.577393-.48827-.375976-.203448-.993653-.203448h-1.208496v3.960423z"/></g></svg>