<svg xmlns="http://www.w3.org/2000/svg" viewBox="0 0 56 56"><path fill="#e9e9e0" d="M36.985 0H7.963C7.155 0 6.5.655 6.5 1.926V55c0 .345.655 1 1.463 1h40.074c.808 0 1.463-.655 1.463-1V12.978c0-.696-.093-.92-.257-1.085L37.607.257C37.442.093 37.218 0 36.985 0z"/><path fill="#d9d7ca" d="M37.5.151V12h11.849z"/><path fill="#90bae1" d="M48.037 56H7.963c-.808 0-1.463-.655-1.463-1.463V39h43v15.537c0 .808-.655 1.463-1.463 1.463z"/><path d="M20.83 53l-1.9-3.65c-.027 0-.064.002-.109.007-.046.005-.116.007-.212.007h-1.238V53H15.73V42.924h2.898c.428 0 .852.068 1.271.205.419.137.795.342 1.128.615s.602.604.807.991.308.822.308 1.306c0 .729-.169 1.349-.506 1.859-.338.511-.793.889-1.367 1.135L22.566 53H20.83zm-3.459-4.84h1.49c.2 0 .4-.034.602-.103.2-.068.383-.18.547-.335s.296-.371.396-.649c.1-.278.15-.622.15-1.032 0-.164-.023-.354-.068-.567-.046-.214-.139-.419-.28-.615s-.34-.36-.595-.492c-.256-.132-.593-.198-1.012-.198h-1.23v3.991zm14.52-5.236v1.121h-3.008V53h-1.654v-8.955h-3.008v-1.121h7.67zm3.664 1.244v3.172h4.211v1.121h-4.211V53h-1.668V42.924h6.303v1.244h-4.635z" fill="#fff"/><path d="M12.5 13h6c.553 0 1-.448 1-1s-.447-1-1-1h-6c-.553 0-1 .448-1 1s.447 1 1 1zm0 5h9c.553 0 1-.448 1-1s-.447-1-1-1h-9c-.553 0-1 .448-1 1s.447 1 1 1zm13 0c.26 0 .52-.11.71-.29.18-.19.29-.45.29-.71 0-.26-.11-.52-.29-.71-.38-.37-1.04-.37-1.42 0-.181.19-.29.44-.29.71s.109.52.29.71c.189.18.45.29.71.29zm4 0h8c.553 0 1-.448 1-1s-.447-1-1-1h-8c-.553 0-1 .448-1 1s.447 1 1 1zM11.79 31.29c-.181.19-.29.44-.29.71s.109.52.29.71c.189.18.439.29.71.29.27 0 .52-.11.71-.29.18-.19.29-.45.29-.71 0-.26-.11-.52-.29-.71-.37-.37-1.05-.37-1.42 0zM24.5 31h-8c-.553 0-1 .448-1 1s.447 1 1 1h8c.553 0 1-.448 1-1s-.447-1-1-1zm17-13h2c.553 0 1-.448 1-1s-.447-1-1-1h-2c-.553 0-1 .448-1 1s.447 1 1 1zm-29 5h22c.553 0 1-.448 1-1s-.447-1-1-1h-22c-.553 0-1 .448-1 1s.447 1 1 1zm31-2h-6c-.553 0-1 .448-1 1s.447 1 1 1h6c.553 0 1-.448 1-1s-.447-1-1-1zm-31 7h4c.553 0 1-.448 1-1s-.447-1-1-1h-4c-.553 0-1 .448-1 1s.447 1 1 1zm18-2h-10c-.553 0-1 .448-1 1s.447 1 1 1h10c.553 0 1-.448 1-1s-.447-1-1-1zm13 0h-9c-.553 0-1 .448-1 1s.447 1 1 1h9c.553 0 1-.448 1-1s-.447-1-1-1z" fill="#c8bdb8"/></svg>