<svg xmlns="http://www.w3.org/2000/svg" viewBox="0 0 56 56"><path fill="#e9e9e0" d="M36.985 0H7.963C7.155 0 6.5.655 6.5 1.926V55c0 .345.655 1 1.463 1h40.074c.808 0 1.463-.655 1.463-1V12.978c0-.696-.093-.92-.257-1.085L37.607.257C37.442.093 37.218 0 36.985 0z"/><path fill="#d9d7ca" d="M37.5.151V12h11.849z"/><path fill="#a02c2c" d="M48.037 56H7.963c-.808 0-1.463-.655-1.463-1.463V39h43v15.537c0 .808-.655 1.463-1.463 1.463z"/><g fill="#c8bdb8"><path d="M28.5 24v-2h2v-2h-2v-2h2v-2h-2v-2h2v-2h-2v-2h2V8h-2V6h-2v2h-2v2h2v2h-2v2h2v2h-2v2h2v2h-2v2h2v2h-4v5c0 2.757 2.243 5 5 5s5-2.243 5-5v-5h-4zm2 5c0 1.654-1.346 3-3 3s-3-1.346-3-3v-3h6v3z"/><path d="M26.5 30h2c.552 0 1-.447 1-1s-.448-1-1-1h-2c-.552 0-1 .447-1 1s.448 1 1 1z"/></g><path fill="#fff" d="M23.60913 52.97458l3.46436-9.98244h1.5979l3.4375 9.98244h-1.66504l-.71167-2.07516H26.0127l-.7251 2.07516zm2.77954-3.17377h2.9541l-1.46362-4.31306-1.49048 4.31306zm12.79663 3.17377l-1.86645-3.62135c-.02686 0-.06267.0045-.10742.01356h-1.42334v3.60778h-1.61133v-9.996h2.84668c.42073 0 .837.06782 1.24878.20345.41178.13563.7788.33908 1.10107.61034.33122.27126.5953.6013.79224.9901.20589.37977.30884.80927.30884 1.2885 0 .72336-.16561 1.33822-.49683 1.84458-.33122.50635-.7788.8816-1.34277 1.12573l2.25586 3.9333H39.1853zm-3.39721-4.80134h1.46362c.19694 0 .39388-.03165.59082-.09495.19694-.07234.37598-.18536.5371-.33908.16114-.15371.29094-.3662.38941-.63746.09847-.2803.1477-.6239.1477-1.0308 0-.16276-.02237-.34812-.06713-.55609-.04476-.217-.13876-.42045-.28198-.61033-.13428-.19893-.32675-.36169-.5774-.48828-.25065-.13563-.58186-.20344-.99365-.20344h-1.2085v3.96042z" font-family="Allerta" font-size="13.81913" font-weight="400"/><path fill="#fff" d="M22.44071 42.95062v1.121h-3.008v8.955h-1.654v-8.955h-3.008v-1.121z"/></svg>