<svg xmlns="http://www.w3.org/2000/svg" viewBox="0 0 56 56"><path fill="#e9e9e0" d="M36.985 0H7.963C7.155 0 6.5.655 6.5 1.926V55c0 .345.655 1 1.463 1h40.074c.808 0 1.463-.655 1.463-1V12.978c0-.696-.093-.92-.257-1.085L37.607.257C37.442.093 37.218 0 36.985 0z"/><path fill="#c8bdb8" d="M24.5 40c-.166 0-.331-.041-.481-.123-.32-.176-.519-.512-.519-.877V25c0-.365.199-.701.519-.877.321-.175.71-.162 1.019.033l11 7c.287.184.462.502.462.844 0 .342-.175.66-.463.844l-11 7c-.163.103-.35.156-.537.156zm1-13.179v10.357L33.637 32 25.5 26.821z"/><path fill="#c8bdb8" d="M28.5 47c-8.271 0-15-6.729-15-15s6.729-15 15-15 15 6.729 15 15-6.729 15-15 15zm0-28c-7.168 0-13 5.832-13 13s5.832 13 13 13 13-5.832 13-13-5.832-13-13-13z"/><path fill="#d9d7ca" d="M37.5.151V12h11.849z"/></svg>