<svg xmlns="http://www.w3.org/2000/svg" viewBox="0 0 56 56"><path fill="#e9e9e0" d="M36.985 0H7.963C7.155 0 6.5.655 6.5 1.926V55c0 .345.655 1 1.463 1h40.074c.808 0 1.463-.655 1.463-1V12.978c0-.696-.093-.92-.257-1.085L37.607.257C37.442.093 37.218 0 36.985 0z"/><path fill="#d9d7ca" d="M37.5.151V12h11.849z"/><path fill="#556080" d="M48.037 56H7.963c-.808 0-1.463-.655-1.463-1.463V39h43v15.537c0 .808-.655 1.463-1.463 1.463z"/><path fill="#c8bdb8" d="M35.67 14.986c-.567-.796-1.3-1.543-2.308-2.351-3.914-3.131-4.757-6.277-4.862-6.738V5c0-.553-.447-1-1-1s-1 .447-1 1v18.412h-3.706c-3.882 0-6.294 1.961-6.294 5.117 0 3.466 2.24 5.706 5.706 5.706 3.471 0 6.294-2.823 6.294-6.294V16.468l.298.243c.34.336.861.72 1.521 1.205 2.318 1.709 6.2 4.567 5.224 7.793-.029.098-.043.195-.043.291 0 .43.278.826.71.957.097.029.194.043.29.043.43 0 .826-.278.957-.71 1.627-5.375-.422-9.39-1.787-11.304zM26.5 27.941c0 2.368-1.926 4.294-4.294 4.294-2.355 0-3.706-1.351-3.706-3.706 0-2.576 2.335-3.117 4.294-3.117H26.5v2.529zm5.005-11.633c-.571-.422-1.065-.785-1.371-1.081l-1.634-1.34v-3.473c.827 1.174 1.987 2.483 3.612 3.783.858.688 1.472 1.308 1.929 1.95.716 1.003 1.431 2.339 1.788 3.978-1.327-1.61-3.084-2.904-4.324-3.817z"/><g fill="#fff" font-family="Allerta" font-size="13.75" font-weight="400" style="-inkscape-font-specification:Allerta"><path d="M24.320801 42.525024l-2.672119 9.949952h-2.094727l-1.624756-7.465821-1.732178 7.465821h-2.108154l-2.510986-9.949952h1.826172l1.745605 8.540039 1.879883-8.540039h1.826172l1.745605 8.540039 1.893311-8.540039h1.826172zM25.86499 52.421265l3.464356-9.882813h1.5979l3.4375 9.882813h-1.665039l-.71167-2.054444h-3.719482l-.725098 2.054444H25.86499zm2.779541-3.14209h2.954102l-1.463623-4.27002-1.490479 4.27002zM39.104736 52.474976l-3.074951-9.949952h1.8396l2.296142 8.540039 2.43042-8.540039h1.826172l-3.222656 9.949952h-2.094727z"/></g></svg>