<svg xmlns="http://www.w3.org/2000/svg" viewBox="0 0 56 56"><path fill="#e9e9e0" d="M36.985 0H7.963C7.155 0 6.5.655 6.5 1.926V55c0 .345.655 1 1.463 1h40.074c.808 0 1.463-.655 1.463-1V12.978c0-.696-.093-.92-.257-1.085L37.607.257C37.442.093 37.218 0 36.985 0z"/><path fill="#d9d7ca" d="M37.5.151V12h11.849z"/><path fill="#90bae1" d="M48.037 56H7.963c-.808 0-1.463-.655-1.463-1.463V39h43v15.537c0 .808-.655 1.463-1.463 1.463z"/><g fill="#c8bdb8"><path d="M28.5 24v-2h2v-2h-2v-2h2v-2h-2v-2h2v-2h-2v-2h2V8h-2V6h-2v2h-2v2h2v2h-2v2h2v2h-2v2h2v2h-2v2h2v2h-4v5c0 2.757 2.243 5 5 5s5-2.243 5-5v-5h-4zm2 5c0 1.654-1.346 3-3 3s-3-1.346-3-3v-3h6v3z"/><path d="M26.5 30h2c.552 0 1-.447 1-1s-.448-1-1-1h-2c-.552 0-1 .447-1 1s.448 1 1 1z"/></g><g fill="#fff" font-family="Allerta" font-size="13.888082" font-weight="400" style="-inkscape-font-specification:Allerta"><path d="M22.01123 52.999144l3.4375-8.75352h-4.310302v-1.34248h6.21704l-3.84033 10.096H22.01123zM29.101074 45.273032h5.760498v1.328782l-3.894043 4.849368-.268554.21918h4.162597v1.328782h-5.760498v-1.328782l3.894043-4.849367.268554-.21918h-4.162597v-1.328783z"/></g></svg>