<svg xmlns="http://www.w3.org/2000/svg" viewBox="0 0 56 56"><path fill="#e9e9e0" d="M36.985 0H7.963C7.155 0 6.5.655 6.5 1.926V55c0 .345.655 1 1.463 1h40.074c.808 0 1.463-.655 1.463-1V12.978c0-.696-.093-.92-.257-1.085L37.607.257C37.442.093 37.218 0 36.985 0z"/><path fill="#ffc14f" d="M48.037 56H7.963c-.808 0-1.463-.655-1.463-1.463V39h43v15.537c0 .808-.655 1.463-1.463 1.463z"/><path d="M20.067 53l3.527-10.063h1.627L28.722 53h-1.695l-.725-2.092h-3.787L21.776 53h-1.709zm2.83-3.199h3.008l-1.49-4.348-1.518 4.348zM32.536 53h-1.668V42.924h1.668V53z" fill="#fff"/><path fill="#c8bdb8" d="M37.5 11v.461c-3.071.968-5.503 3.382-6.502 6.44C30.311 17.346 29.45 17 28.5 17c-1.859 0-3.411 1.28-3.858 3H21.5v-2h-6v6h6v-2h2.921c-.336 2.663-1.985 4.978-4.389 6.163C19.364 26.884 18.04 26 16.5 26c-2.206 0-4 1.794-4 4s1.794 4 4 4c2.146 0 3.888-1.702 3.982-3.825 2.655-1.151 4.647-3.387 5.524-6.073.686.553 1.546.898 2.494.898 1.859 0 3.411-1.28 3.858-3H35.5v2h6v-6h-6v2h-2.931c.379-3.019 2.444-5.514 5.222-6.518C38.383 14.955 39.818 16 41.5 16c2.206 0 4-1.794 4-4v-1h-8zm-18 11h-2v-2h2v2zm-3 10c-1.103 0-2-.897-2-2s.897-2 2-2 2 .897 2 2-.897 2-2 2zm21-12h2v2h-2v-2zm-9 3c-1.103 0-2-.897-2-2s.897-2 2-2 2 .897 2 2-.897 2-2 2zm13-9c-.723 0-1.353-.389-1.704-.964.232-.021.466-.036.704-.036h2.731c-.345.597-.992 1-1.731 1z"/><path fill="#d9d7ca" d="M37.5.151V12h11.849z"/></svg>