<svg xmlns="http://www.w3.org/2000/svg" viewBox="0 0 56 56"><path fill="#e9e9e0" d="M36.985 0H7.963C7.155 0 6.5.655 6.5 1.926V55c0 .345.655 1 1.463 1h40.074c.808 0 1.463-.655 1.463-1V12.978c0-.696-.093-.92-.257-1.085L37.607.257A.884.884 0 0036.985 0z"/><path fill="#d9d7ca" d="M37.5.151V12h11.849z"/><path fill="#c8bdb8" d="M35.67 26.986c-.567-.796-1.3-1.543-2.308-2.351-3.914-3.131-4.757-6.277-4.862-6.738V17a1 1 0 10-2 0v18.412h-3.706c-3.882 0-6.294 1.961-6.294 5.117 0 3.466 2.24 5.706 5.706 5.706a6.3 6.3 0 006.294-6.294V28.468l.298.243c.34.336.861.72 1.521 1.205 2.318 1.709 6.2 4.567 5.224 7.793a1 1 0 101.914.581c1.627-5.375-.422-9.39-1.787-11.304zM26.5 39.941a4.299 4.299 0 01-4.294 4.294c-2.355 0-3.706-1.351-3.706-3.706 0-2.576 2.335-3.117 4.294-3.117H26.5v2.529zm5.005-11.633c-.571-.422-1.065-.785-1.371-1.081l-1.634-1.34v-3.473c.827 1.174 1.987 2.483 3.612 3.783.858.688 1.472 1.308 1.929 1.95a10.832 10.832 0 011.788 3.978c-1.327-1.61-3.084-2.904-4.324-3.817z"/></svg>