<svg xmlns="http://www.w3.org/2000/svg" viewBox="0 0 56 56"><path fill="#e9e9e0" d="M36.985 0H7.963C7.155 0 6.5.655 6.5 1.926V55c0 .345.655 1 1.463 1h40.074c.808 0 1.463-.655 1.463-1V12.978c0-.696-.093-.92-.257-1.085L37.607.257C37.442.093 37.218 0 36.985 0z"/><path fill="#d9d7ca" d="M37.5.151V12h11.849z"/><path fill="#90bae1" d="M48.037 56H7.963c-.808 0-1.463-.655-1.463-1.463V39h43v15.537c0 .808-.655 1.463-1.463 1.463z"/><path fill="#c8bdb8" d="M35.67 14.986c-.567-.796-1.3-1.543-2.308-2.351-3.914-3.131-4.757-6.277-4.862-6.738V5c0-.553-.447-1-1-1s-1 .447-1 1v18.412h-3.706c-3.882 0-6.294 1.961-6.294 5.117 0 3.466 2.24 5.706 5.706 5.706 3.471 0 6.294-2.823 6.294-6.294V16.468l.298.243c.34.336.861.72 1.521 1.205 2.318 1.709 6.2 4.567 5.224 7.793-.029.098-.043.195-.043.291 0 .43.278.826.71.957.097.029.194.043.29.043.43 0 .826-.278.957-.71 1.627-5.375-.422-9.39-1.787-11.304zM26.5 27.941c0 2.368-1.926 4.294-4.294 4.294-2.355 0-3.706-1.351-3.706-3.706 0-2.576 2.335-3.117 4.294-3.117H26.5v2.529zm5.005-11.633c-.571-.422-1.065-.785-1.371-1.081l-1.634-1.34v-3.473c.827 1.174 1.987 2.483 3.612 3.783.858.688 1.472 1.308 1.929 1.95.716 1.003 1.431 2.339 1.788 3.978-1.327-1.61-3.084-2.904-4.324-3.817z"/><g fill="#fff" font-family="Allerta" font-size="13.75" font-weight="400" style="-inkscape-font-specification:Allerta"><path d="M13.310059 43.820801v3.115234h4.135742v1.101074h-4.135742v4.458008h-1.638184v-9.89624h6.190186v1.221924h-4.552002zM21.232422 42.598877v8.674316h4.552002v1.221924h-6.190186v-9.89624h1.638184zM27.033203 52.495117l3.464356-9.882812h1.5979l3.4375 9.882812H33.86792l-.71167-2.054443h-3.719482l-.725098 2.054443h-1.678467zm2.779541-3.14209h2.954102l-1.463623-4.270019-1.490479 4.270019zM44.328125 51.488037q-.550537.537109-1.248779.805664-.698242.268555-1.503907.268555-.88623 0-1.638183-.322266-.738526-.322265-1.30249-.953369-.550537-.631103-.872803-1.584473-.308838-.953369-.308838-2.202148 0-1.248779.308838-2.188721.322266-.953369.872803-1.584472.563964-.631104 1.315918-.95337.751953-.335693 1.624755-.335693.805665 0 1.503907.268555.698242.268555 1.248779.805664l-1.114502.993652q-.335693-.389404-.751953-.563965-.402832-.17456-.845947-.17456-.496827 0-.953369.187988-.443116.187988-.805665.644531-.349121.443116-.550537 1.154786-.201416.711669-.214843 1.745605.01343 1.00708.201416 1.71875.201416.71167.537109 1.168213.349121.443115.778809.657959.443115.201416.926513.201416.483399 0 .899658-.174561.429688-.17456.778809-.563965l1.114502.980225z"/></g></svg>