<svg xmlns="http://www.w3.org/2000/svg" viewBox="0 0 56 56"><path d="M36.985 0H7.963C7.155 0 6.5.655 6.5 1.926V55c0 .345.655 1 1.463 1h40.074c.808 0 1.463-.655 1.463-1V12.978c0-.696-.093-.92-.257-1.085L37.607.257A.884.884 0 0036.985 0z" fill="#e9e9e0"/><path d="M48.037 56H7.963A1.463 1.463 0 016.5 54.537V39h43v15.537c0 .808-.655 1.463-1.463 1.463z" fill="#446e35"/><path fill="#d9d7ca" d="M49.349 12L37.5.151V12z"/><circle r="4.569" cy="14.431" cx="18.931" fill="#f3d55b"/><path fill="#61a057" d="M49.5 39V28l-10-9.5L29 30l-5.483-5.483L6.5 39h11z"/><path d="M29.442 52.94h-1.668V42.866h1.668zm3.541-8.831v3.172h4.211v1.12h-4.211v4.54h-1.668V42.865h6.303v1.244zm-7.082 3.714v3.896c-.21.265-.444.48-.704.65a4.305 4.305 0 01-1.709.65 6.096 6.096 0 01-.909.067 4.135 4.135 0 01-1.661-.328 3.72 3.72 0 01-1.326-.97c-.378-.43-.675-.967-.889-1.614-.214-.647-.321-1.395-.321-2.242s.107-1.593.321-2.235c.214-.643.51-1.178.889-1.606a3.78 3.78 0 011.333-.978 4.072 4.072 0 011.654-.335 4.23 4.23 0 011.531.273 3.73 3.73 0 011.271.82l-1.135 1.012a1.951 1.951 0 00-.752-.574 2.248 2.248 0 00-.875-.178c-.337 0-.658.063-.964.191a2.065 2.065 0 00-.82.65c-.241.304-.431.698-.567 1.182-.137.483-.21 1.075-.219 1.777.009.684.08 1.276.212 1.777.132.501.314.911.547 1.23.233.32.497.556.793.711.296.155.608.232.937.232a5.555 5.555 0 00.909-.089c.169-.032.33-.075.485-.13a.695.695 0 00.342-.232v-2.488h-1.709v-1.12h3.336z" fill="#fff"/></svg>