<svg xmlns="http://www.w3.org/2000/svg" viewBox="0 0 56 56"><path fill="#e9e9e0" d="M36.985 0H7.963C7.155 0 6.5.655 6.5 1.926V55c0 .345.655 1 1.463 1h40.074c.808 0 1.463-.655 1.463-1V12.978c0-.696-.093-.92-.257-1.085L37.607.257C37.442.093 37.218 0 36.985 0z"/><path fill="#5889c4" d="M48.037 56H7.963c-.808 0-1.463-.655-1.463-1.463V39h43v15.537c0 .808-.655 1.463-1.463 1.463z"/><path d="M17.385 53h-1.641V42.924h2.898c.428 0 .852.068 1.271.205.419.137.795.342 1.128.615.333.273.602.604.807.991s.308.822.308 1.306c0 .511-.087.973-.26 1.388-.173.415-.415.764-.725 1.046-.31.282-.684.501-1.121.656s-.921.232-1.449.232h-1.217V53zm0-8.832v3.992h1.504c.2 0 .398-.034.595-.103.196-.068.376-.18.54-.335.164-.155.296-.371.396-.649.1-.278.15-.622.15-1.032 0-.164-.023-.354-.068-.567-.046-.214-.139-.419-.28-.615-.142-.196-.34-.36-.595-.492-.255-.132-.593-.198-1.012-.198h-1.23zm12.345 6.07c0 .364-.075.718-.226 1.06s-.362.643-.636.902-.611.467-1.012.622c-.401.155-.857.232-1.367.232-.219 0-.444-.012-.677-.034s-.467-.062-.704-.116c-.237-.055-.463-.13-.677-.226-.214-.096-.399-.212-.554-.349l.287-1.176c.127.073.289.144.485.212s.398.132.608.191c.209.06.419.107.629.144.209.036.405.055.588.055.556 0 .982-.13 1.278-.39.296-.26.444-.645.444-1.155 0-.31-.105-.574-.314-.793-.21-.219-.472-.417-.786-.595s-.654-.355-1.019-.533c-.365-.178-.707-.388-1.025-.629-.319-.241-.583-.526-.793-.854-.21-.328-.314-.738-.314-1.23 0-.446.082-.843.246-1.189s.385-.641.663-.882.602-.426.971-.554.759-.191 1.169-.191c.419 0 .843.039 1.271.116.428.077.774.203 1.039.376-.055.118-.119.248-.191.39-.073.142-.142.273-.205.396-.064.123-.119.226-.164.308-.046.082-.073.128-.082.137-.055-.027-.116-.063-.185-.109s-.167-.091-.294-.137c-.128-.046-.296-.077-.506-.096-.21-.019-.479-.014-.807.014-.183.019-.355.07-.52.157s-.31.193-.438.321-.228.271-.301.431c-.073.159-.109.313-.109.458 0 .364.104.658.314.882.209.224.469.419.779.588.31.169.647.333 1.012.492.364.159.704.354 1.019.581s.576.513.786.854c.213.342.318.781.318 1.319zm9.899-2.556c0 .829-.089 1.538-.267 2.126s-.403 1.08-.677 1.477-.581.709-.923.937-.672.398-.991.513c-.319.114-.611.187-.875.219-.264.03-.46.046-.587.046h-3.814V42.924h3.035c.848 0 1.593.135 2.235.403s1.176.627 1.6 1.073.74.955.95 1.524c.209.57.314 1.156.314 1.758zm-4.867 4.115c1.112 0 1.914-.355 2.406-1.066s.738-1.741.738-3.09c0-.419-.05-.834-.15-1.244-.101-.41-.294-.781-.581-1.114s-.677-.602-1.169-.807-1.13-.308-1.914-.308h-.957v7.629h1.627z" fill="#fff"/><path fill="#c8bdb8" d="M38.894 11.163c-.463-.301-1.082-.171-1.384.291-1.433 2.196-3.979 5.164-5.19 6.375l-2.788 2.788-2.828-2.828L29.49 15c1.771-1.771 6.271-5.442 8.116-6.102.04-.006.091-.015.112-.02.521-.117.827-.617.735-1.143-.093-.526-.616-.885-1.143-.814l-.283.062c-2.439.813-7.457 5.108-8.952 6.604l-7.185 7.185c-.095-.004-.189-.014-.285-.014-2.971 0-5.463 2.125-5.983 5.016l-.108.073-.02.536c-.034.942-.302 4.052-2.343 4.546-.517.129-.858.625-.793 1.152l.162.919h7l2.086-.03c3.367 0 6.107-2.74 6.107-6.107 0-.193-.011-.383-.029-.572l7.049-7.048c1.305-1.305 3.925-4.358 5.451-6.696.302-.463.172-1.082-.29-1.384zM20.606 30.97h-3.739l.015.03h-1.661c.887-1.341 1.161-3.037 1.244-4.045l.082-.504c.213-2.106 1.958-3.694 4.06-3.694.121 0 .235.025.354.036l.167.021c1.045.134 1.956.655 2.6 1.411.058.069.118.135.171.208.082.11.155.227.226.345.05.085.097.172.142.26.063.126.124.254.174.387.03.08.052.164.077.247.045.147.091.294.12.449l.005.026c.041.234.072.471.072.716-.002 2.264-1.844 4.107-4.109 4.107zm4.91-7.723c-.007-.009-.013-.017-.02-.026-.605-.811-1.405-1.465-2.332-1.895l2.123-2.123 2.828 2.828-2.071 2.07c-.151-.3-.329-.585-.528-.854z"/><path fill="#d9d7ca" d="M37.5.151V12h11.849z"/></svg>