<svg xmlns="http://www.w3.org/2000/svg" viewBox="0 0 56 56"><path fill="#e9e9e0" d="M36.985 0H7.963C7.155 0 6.5.655 6.5 1.926V55c0 .345.655 1 1.463 1h40.074c.808 0 1.463-.655 1.463-1V12.978c0-.696-.093-.92-.257-1.085L37.607.257C37.442.093 37.218 0 36.985 0z"/><path fill="#d9d7ca" d="M37.5.151V12h11.849z"/><path fill="#ce3c3b" d="M48.037 56H7.963c-.808 0-1.463-.655-1.463-1.463V39h43v15.537c0 .808-.655 1.463-1.463 1.463z"/><g fill="#c8bdb8"><path d="M28.5 24v-2h2v-2h-2v-2h2v-2h-2v-2h2v-2h-2v-2h2V8h-2V6h-2v2h-2v2h2v2h-2v2h2v2h-2v2h2v2h-2v2h2v2h-4v5c0 2.757 2.243 5 5 5s5-2.243 5-5v-5h-4zm2 5c0 1.654-1.346 3-3 3s-3-1.346-3-3v-3h6v3z"/><path d="M26.5 30h2c.552 0 1-.447 1-1s-.448-1-1-1h-2c-.552 0-1 .447-1 1s.448 1 1 1z"/></g><path d="M20.11792 52.97458l-1.86645-3.62135q-.0403 0-.10743.01356H16.7207v3.60778h-1.61132v-9.996h2.84668q.6311 0 1.24877.20345.61768.20344 1.10108.61034.49683.40689.79224.9901.30883.56965.30883 1.2885 0 1.08504-.49682 1.84458t-1.34278 1.12573l2.25586 3.9333h-1.70532zm-3.39722-4.80134h1.46363q.2954 0 .59082-.09495.2954-.1085.5371-.33907.2417-.23058.38941-.63747.1477-.42045.1477-1.0308 0-.24413-.06714-.55608-.06714-.32552-.28198-.61034-.20142-.29839-.5774-.48827-.37597-.20345-.99364-.20345h-1.2085v3.96042zm6.88843 4.80134l3.46436-9.98244h1.5979l3.4375 9.98244h-1.66504l-.71167-2.07516H26.0127l-.7251 2.07516h-1.67847zm2.77954-3.17377h2.9541l-1.46362-4.31306-1.49048 4.31306zm12.79663 3.17377l-1.86645-3.62135q-.04029 0-.10742.01356h-1.42334v3.60778h-1.61133v-9.996h2.84668q.6311 0 1.24878.20345.61767.20344 1.10107.61034.49683.40689.79224.9901.30884.56965.30884 1.2885 0 1.08504-.49683 1.84458t-1.34277 1.12573l2.25586 3.9333H39.1853zm-3.39721-4.80134h1.46362q.29541 0 .59082-.09495.29541-.1085.5371-.33907.2417-.23058.38941-.63747.1477-.42045.1477-1.0308 0-.24413-.06713-.55608-.06715-.32552-.28199-.61034-.20141-.29839-.57739-.48827-.37597-.20345-.99365-.20345h-1.2085v3.96042z" fill="#fff" font-family="Allerta" font-size="13.81913" font-weight="400"/></svg>