<svg xmlns="http://www.w3.org/2000/svg" viewBox="0 0 56 56"><path fill="#e9e9e0" d="M36.985 0H7.963C7.155 0 6.5.655 6.5 1.926V55c0 .345.655 1 1.463 1h40.074c.808 0 1.463-.655 1.463-1V12.978c0-.696-.093-.92-.257-1.085L37.607.257A.884.884 0 0036.985 0z"/><path fill="#d9d7ca" d="M37.5.151V12h11.849z"/><path fill="#ce3c3b" d="M48.037 56H7.963A1.463 1.463 0 016.5 54.537V39h43v15.537c0 .808-.655 1.463-1.463 1.463z"/><g fill="#c8bdb8"><path d="M28.5 24v-2h2v-2h-2v-2h2v-2h-2v-2h2v-2h-2v-2h2V8h-2V6h-2v2h-2v2h2v2h-2v2h2v2h-2v2h2v2h-2v2h2v2h-4v5c0 2.757 2.243 5 5 5s5-2.243 5-5v-5h-4zm2 5c0 1.654-1.346 3-3 3s-3-1.346-3-3v-3h6v3z"/><path d="M26.5 30h2a1 1 0 100-2h-2a1 1 0 100 2z"/></g><path d="M20.118 52.975l-1.867-3.622q-.04 0-.107.014h-1.423v3.608h-1.612v-9.996h2.847q.631 0 1.249.203.618.203 1.1.61.498.407.793.99.309.57.309 1.289 0 1.085-.497 1.845t-1.343 1.125l2.256 3.934h-1.705zm-3.397-4.802h1.463q.296 0 .591-.095.296-.108.537-.339.242-.23.39-.637.147-.42.147-1.031 0-.244-.067-.556-.067-.326-.282-.61-.201-.299-.577-.489-.376-.203-.994-.203h-1.208v3.96zm6.888 4.802l3.464-9.983h1.598l3.438 9.983h-1.665l-.712-2.076h-3.72l-.724 2.076h-1.679zm2.78-3.174h2.954l-1.464-4.313-1.49 4.313zm12.796 3.174l-1.866-3.622q-.04 0-.108.014h-1.423v3.608h-1.611v-9.996h2.846q.632 0 1.25.203.617.203 1.1.61.497.407.793.99.308.57.308 1.289 0 1.085-.496 1.845t-1.343 1.125l2.256 3.934h-1.706zm-3.397-4.802h1.464q.295 0 .59-.095.296-.108.538-.339.241-.23.389-.637.148-.42.148-1.031 0-.244-.067-.556-.068-.326-.282-.61-.202-.299-.578-.489-.376-.203-.993-.203h-1.209v3.96z" fill="#fff" font-family="Allerta" font-size="13.819" font-weight="400"/></svg>