<svg xmlns="http://www.w3.org/2000/svg" viewBox="0 0 56 56"><path fill="#e9e9e0" d="M36.985 0H7.963C7.155 0 6.5.655 6.5 1.926V55c0 .345.655 1 1.463 1h40.074c.808 0 1.463-.655 1.463-1V12.978c0-.696-.093-.92-.257-1.085L37.607.257A.884.884 0 0036.985 0z"/><path fill="#d9d7ca" d="M37.5.151V12h11.849z"/><path fill="#a02c2c" d="M48.037 56H7.963A1.463 1.463 0 016.5 54.537V39h43v15.537c0 .808-.655 1.463-1.463 1.463z"/><g fill="#c8bdb8"><path d="M28.5 24v-2h2v-2h-2v-2h2v-2h-2v-2h2v-2h-2v-2h2V8h-2V6h-2v2h-2v2h2v2h-2v2h2v2h-2v2h2v2h-2v2h2v2h-4v5c0 2.757 2.243 5 5 5s5-2.243 5-5v-5h-4zm2 5c0 1.654-1.346 3-3 3s-3-1.346-3-3v-3h6v3z"/><path d="M26.5 30h2a1 1 0 100-2h-2a1 1 0 100 2z"/></g><path fill="#fff" d="M23.61 52.975l3.463-9.983h1.598l3.438 9.983h-1.665l-.712-2.076h-3.72l-.724 2.076zm2.779-3.174h2.954l-1.464-4.313-1.49 4.313zm12.796 3.174l-1.866-3.622a.57.57 0 00-.108.014h-1.423v3.608h-1.611v-9.996h2.846c.421 0 .837.067 1.25.203.411.136.778.34 1.1.61.332.272.596.602.793.99.205.38.308.81.308 1.289 0 .723-.165 1.338-.496 1.845a2.986 2.986 0 01-1.343 1.125l2.256 3.934h-1.706zm-3.397-4.802h1.464c.197 0 .394-.031.59-.095.197-.072.377-.185.538-.339.16-.153.29-.366.389-.637.099-.28.148-.624.148-1.031 0-.163-.023-.348-.067-.556a1.514 1.514 0 00-.282-.61 1.484 1.484 0 00-.578-.489c-.25-.135-.582-.203-.993-.203h-1.209v3.96z" font-family="Allerta" font-size="13.819" font-weight="400"/><path fill="#fff" d="M22.44 42.95v1.122h-3.007v8.955h-1.654v-8.955H14.77V42.95z"/></svg>