<svg xmlns="http://www.w3.org/2000/svg" viewBox="0 0 56 56"><path fill="#e9e9e0" d="M36.985 0H7.963C7.155 0 6.5.655 6.5 1.926V55c0 .345.655 1 1.463 1h40.074c.808 0 1.463-.655 1.463-1V12.978c0-.696-.093-.92-.257-1.085L37.607.257C37.442.093 37.218 0 36.985 0z"/><path fill="#d9d7ca" d="M37.5.151V12h11.849z"/><path fill="#a02c2c" d="M48.037 56H7.963c-.808 0-1.463-.655-1.463-1.463V39h43v15.537c0 .808-.655 1.463-1.463 1.463z"/><g fill="#c8bdb8"><path d="M28.5 24v-2h2v-2h-2v-2h2v-2h-2v-2h2v-2h-2v-2h2V8h-2V6h-2v2h-2v2h2v2h-2v2h2v2h-2v2h2v2h-2v2h2v2h-4v5c0 2.757 2.243 5 5 5s5-2.243 5-5v-5h-4zm2 5c0 1.654-1.346 3-3 3s-3-1.346-3-3v-3h6v3z"/><path d="M26.5 30h2c.552 0 1-.447 1-1s-.448-1-1-1h-2c-.552 0-1 .447-1 1s.448 1 1 1z"/></g><path fill="#fff" d="M23.609132 52.974575l3.464356-9.982437h1.5979l3.4375 9.982437h-1.66504l-.71167-2.075154h-3.719482l-.725097 2.075154zm2.77954-3.173764h2.954103l-1.463624-4.313064-1.490478 4.313064zm12.796631 3.173764l-1.866455-3.621346c-.02686 0-.06267.0045-.107422.01356h-1.42334v3.607783h-1.611328v-9.996h2.84668c.420735 0 .836995.06782 1.24878.203447.411783.135631.778808.339077 1.101074.61034.331217.271261.595296.601296.792236.990104.205892.379767.308838.809265.308838 1.288495 0 .723365-.165609 1.338225-.496826 1.84458-.331217.506355-.778809.881601-1.342774 1.125736l2.25586 3.933298h-1.705323zm-3.397217-4.801336h1.463624c.19694 0 .39388-.03165.59082-.09495.19694-.07234.375976-.185362.537109-.339077.161133-.153715.290935-.366204.389405-.637466.09847-.280303.147704-.623901.147704-1.030794 0-.162758-.02238-.34812-.06714-.556087-.04476-.21701-.138756-.420457-.281982-.61034-.134278-.198925-.326742-.361682-.577393-.48827-.250651-.135632-.581868-.203448-.993653-.203448h-1.208496v3.960423z" font-family="Allerta" font-size="13.81913" font-weight="400"/><path fill="#fff" d="M22.44071 42.950621v1.121h-3.008v8.955h-1.654v-8.955h-3.008v-1.121z"/></svg>