<svg xmlns="http://www.w3.org/2000/svg" viewBox="0 0 56 56"><path d="M36.985 0H7.963C7.155 0 6.5.655 6.5 1.926V55c0 .345.655 1 1.463 1h40.074c.808 0 1.463-.655 1.463-1V12.978c0-.696-.093-.92-.257-1.085L37.607.257A.884.884 0 0036.985 0z" fill="#e9e9e0"/><path d="M48.037 56H7.963A1.463 1.463 0 016.5 54.537V39h43v15.537c0 .808-.655 1.463-1.463 1.463z" fill="#af5637"/><path fill="#d9d7ca" d="M37.5.151V12h11.849z"/><circle cx="18.931" cy="14.431" r="4.569" fill="#f3d55b"/><path fill="#e15f3d" d="M6.5 39h43V28l-10-9.5L29 30l-5.483-5.483z"/><path d="M21.975 42.726l-2.721 10.131h-2.133l-1.654-7.602-1.764 7.602h-2.146L9 42.727h1.859l1.777 8.694 1.914-8.695h1.859l1.777 8.695 1.928-8.695zm3.469 1.244v3.172h4.211v1.121h-4.211v3.295h4.634v1.244h-6.303V42.726h6.303v1.244zm11.192 3.527c.209.027.433.096.67.205.237.11.458.265.663.465.205.2.376.444.513.731s.205.617.205.991c0 .456-.068.848-.205 1.176-.137.328-.308.6-.513.813a2.529 2.529 0 01-.67.506 3.873 3.873 0 01-.697.28 3.106 3.106 0 01-.595.116 4.976 4.976 0 01-.342.022h-3.787V42.726h2.898c.428 0 .843.05 1.244.15.401.101.756.26 1.066.48.31.218.556.503.738.853.182.351.273.768.273 1.251a2.1 2.1 0 01-.137.772 2.344 2.344 0 01-.342.608 1.966 1.966 0 01-.472.431c-.178.115-.346.19-.51.226zm-1.901-.465c.2 0 .405-.005.615-.014.209-.009.405-.06.588-.15.182-.09.33-.246.444-.465.114-.219.171-.533.171-.943 0-.164-.023-.335-.068-.513a1.109 1.109 0 00-.273-.485 1.46 1.46 0 00-.588-.355c-.255-.09-.593-.137-1.012-.137h-1.094v3.063h1.217zm.834 4.567c.483 0 .861-.155 1.135-.465.274-.31.41-.725.41-1.244 0-.492-.142-.907-.424-1.244-.283-.337-.697-.506-1.244-.506h-1.928v3.46zm6.559 1.203h-1.641V42.726h2.898c.428 0 .852.068 1.271.205.419.137.795.342 1.128.615.333.273.602.604.807.991.205.387.308.822.308 1.306 0 .511-.087.973-.26 1.388a2.9 2.9 0 01-.725 1.046c-.31.282-.684.501-1.121.656a4.314 4.314 0 01-1.449.232h-1.217v3.637zm0-8.832v3.992h1.504c.2 0 .398-.034.595-.103.196-.068.376-.18.54-.335a1.63 1.63 0 00.396-.649c.1-.278.15-.622.15-1.032 0-.164-.023-.354-.068-.567a1.637 1.637 0 00-.28-.615 1.657 1.657 0 00-.595-.492c-.255-.132-.593-.198-1.012-.198h-1.23z" fill="#fff"/></svg>