<svg xmlns="http://www.w3.org/2000/svg" viewBox="0 0 56 56"><path fill="#e9e9e0" d="M36.985 0H7.963C7.155 0 6.5.655 6.5 1.926V55c0 .345.655 1 1.463 1h40.074c.808 0 1.463-.655 1.463-1V12.978c0-.696-.093-.92-.257-1.085L37.607.257C37.442.093 37.218 0 36.985 0z"/><path fill="#d9d7ca" d="M37.5.151V12h11.849z"/><path fill="#f29c1f" d="M48.037 56H7.963c-.808 0-1.463-.655-1.463-1.463V39h43v15.537c0 .808-.655 1.463-1.463 1.463z"/><path d="M19.379 48.105L21.936 53h-1.9l-1.6-3.801h-.137L16.576 53h-1.9l2.557-4.895-2.721-5.182h1.873l1.777 4.102h.137l1.928-4.102H22.1l-2.721 5.182zm12.619-5.181h1.668V53h-1.668v-6.932l-2.256 5.605h-1.449l-2.27-5.605V53h-1.668V42.924h1.668l2.994 6.891 2.981-6.891zm5.865 0v8.832h4.635V53h-6.303V42.924h1.668z" fill="#fff"/><path fill="#f29c1f" d="M15.5 24c-.256 0-.512-.098-.707-.293-.391-.391-.391-1.023 0-1.414l6-6c.391-.391 1.023-.391 1.414 0s.391 1.023 0 1.414l-6 6c-.195.195-.451.293-.707.293z"/><path fill="#f29c1f" d="M21.5 30c-.256 0-.512-.098-.707-.293l-6-6c-.391-.391-.391-1.023 0-1.414s1.023-.391 1.414 0l6 6c.391.391.391 1.023 0 1.414-.195.195-.451.293-.707.293zm12 0c-.256 0-.512-.098-.707-.293-.391-.391-.391-1.023 0-1.414l6-6c.391-.391 1.023-.391 1.414 0s.391 1.023 0 1.414l-6 6c-.195.195-.451.293-.707.293z"/><path fill="#f29c1f" d="M39.5 24c-.256 0-.512-.098-.707-.293l-6-6c-.391-.391-.391-1.023 0-1.414s1.023-.391 1.414 0l6 6c.391.391.391 1.023 0 1.414-.195.195-.451.293-.707.293zm-15 8c-.11 0-.223-.019-.333-.058-.521-.184-.794-.755-.61-1.276l6-17c.185-.521.753-.795 1.276-.61.521.184.794.755.61 1.276l-6 17c-.145.412-.531.668-.943.668z"/></svg>